# xmcd CD database file
#
# Track frame offsets:
#	150
#	24123
#	45725
#	74417
#	101377
#	124970
#	149839
#	179727
#	224714
#
# Disc length: 3412 seconds
#
# Revision: 1
# Processed by: cddbd v1.5.1PL0 Copyright (c) Steve Scherf et al.
# Submitted via: CDex 1.50Beta7
#
DISCID=900d5209
DTITLE=Taj Mahal - Sugar Mama Blues
DYEAR=2004
DGENRE=Blues
TTITLE0=Good Morning Miss Brown
TTITLE1=Going Up To The Country And Paint My Mailbox Blue
TTITLE2=Freight Train
TTITLE3=Baby You're My Destiny
TTITLE4=You're Gonna Need Somebody On Your Bond
TTITLE5=Corrine Corrina
TTITLE6=Queen Bee
TTITLE7=Sugar Mama Blues
TTITLE8=Good Morning Little Schoolgirl
EXTD=YEAR: 2004
EXTT0=
EXTT1=
EXTT2=
EXTT3=
EXTT4=
EXTT5=
EXTT6=
EXTT7=
EXTT8=
PLAYORDER=
